<?xml version="1.0" encoding="UTF-8"?>
<svg width="125px" height="39px" viewBox="0 0 125 39" version="1.1" xmlns="http://www.w3.org/2000/svg" xmlns:xlink="http://www.w3.org/1999/xlink">
    <!-- Generator: Sketch 61 (89581) - https://sketch.com -->
    <title>编组 2</title>
    <desc>Created with Sketch.</desc>
    <defs>
        <rect id="path-1" x="0" y="0" width="64" height="64"></rect>
        <linearGradient x1="50%" y1="13.3266844%" x2="46.9950493%" y2="100%" id="linearGradient-3">
            <stop stop-color="#5C86FF" offset="0%"></stop>
            <stop stop-color="#7961FF" offset="100%"></stop>
        </linearGradient>
        <linearGradient x1="50%" y1="13.3266844%" x2="31.7677956%" y2="100%" id="linearGradient-4">
            <stop stop-color="#5C86FF" offset="0%"></stop>
            <stop stop-color="#7961FF" offset="100%"></stop>
        </linearGradient>
    </defs>
    <g id="页面-1" stroke="none" stroke-width="1" fill="none" fill-rule="evenodd">
        <g id="定稿" transform="translate(-40.000000, -27.000000)">
            <g id="编组-2" transform="translate(36.000000, 12.000000)">
                <g id="编组备份">
                    <mask id="mask-2" fill="white">
                        <use xlink:href="#path-1"></use>
                    </mask>
                    <g id="蒙版"></g>
                    <g id="编组" mask="url(#mask-2)">
                        <g transform="translate(27.507769, 32.836011) scale(-1, 1) rotate(-21.000000) translate(-27.507769, -32.836011) translate(-8.492231, 9.336011)">
                            <path d="M14.3180813,6.31780213 L20.7506203,0.28600327 L20.7506203,0.28600327 L20.3508842,35.4710609 L14.7963033,32.8809173 C13.1698012,32.1224669 12.137542,30.4824762 12.1571158,28.6879365 L12.3523486,10.7888251 C12.3708471,9.09286015 13.0808623,7.4779437 14.3180813,6.31780213 Z" id="矩形备份-15" fill="url(#linearGradient-3)" opacity="0.644621" transform="translate(16.437794, 17.878532) scale(-1, 1) rotate(-46.000000) translate(-16.437794, -17.878532) "></path>
                            <path d="M28.2883549,1.89812989 C30.4524095,1.89812989 32.2067223,3.6524427 32.2067223,5.81649723 L32.2067223,5.81649723 L32.2059876,29.3321299 L44.9679424,17.4326262 C46.4978754,16.0059407 48.8657923,16.0392931 50.355112,17.4727391 L50.505975,17.6260186 C51.3500104,18.5311357 51.6830363,19.7295449 51.517465,20.8658102 L51.5206766,46.9230728 L46.558149,44.9825544 C44.8034146,44.2963931 43.6493964,42.603944 43.6515518,40.7198248 L43.6515518,40.7198248 L43.6639876,29.3621299 L31.3405048,40.8558 C30.5074826,41.6326057 29.4260306,41.9765664 28.3732359,41.8973582 L28.2883549,41.8981299 C26.1243004,41.8981299 24.3699876,40.1438171 24.3699876,37.9797625 L24.3699876,37.9797625 L24.3699876,5.81649723 C24.3699876,3.6524427 26.1243004,1.89812989 28.2883549,1.89812989 Z" id="形状结合" fill="url(#linearGradient-4)"></path>
                        </g>
                    </g>
                </g>
                <g id="编组-4备份" transform="translate(68.444444, 20.444444)" fill="#FFFFFF" fill-rule="nonzero">
                    <path d="M16.9194001,16.5605356 L16.9194001,11.0679237 C16.9194001,10.1702418 16.1916851,9.44252686 15.2940032,9.44252686 L6.8458812,9.44252686 L6.8458812,9.44252686 L6.79475456,5.86758024 C6.78901179,5.46602677 7.10987976,5.13584794 7.51143322,5.13010518 C7.51489907,5.13005561 7.51836522,5.13003083 7.52183142,5.13003083 L16.3982216,5.13003083 C16.6860605,5.13003083 16.9194001,4.8966913 16.9194001,4.6088524 C16.9194001,4.3210135 16.6860605,4.08767397 16.3982216,4.08767397 L6.78420659,4.08767397 L6.78420659,4.08767397 L6.78420659,0.558661157 C6.78420659,0.25012112 6.53408547,-1.74972669e-14 6.22554543,-3.55271368e-14 C5.91901407,-3.54708279e-14 5.6705213,0.248492769 5.6705213,0.555024135 C5.6705213,0.556232513 5.67052524,0.557440889 5.67053314,0.558649241 L5.72855888,9.44252686 L5.72855888,9.44252686 L1.62539683,9.44252686 C0.727714946,9.44252686 -1.07963619e-13,10.1702418 -9.9475983e-14,11.0679237 L-9.9475983e-14,16.6208139 C-1.01359303e-13,17.5184958 0.727714946,18.2462107 1.62539683,18.2462107 C1.62778613,18.2462107 1.63017544,18.2462055 1.63256472,18.2461949 L15.3011711,18.1859166 C16.1960463,18.1819703 16.9194001,17.4554195 16.9194001,16.5605356 Z M1.14794023,16.2006554 L1.14794023,11.4234439 C1.14794023,10.974603 1.51179771,10.6107455 1.96063865,10.6107455 L15.017117,10.6107455 C15.4659579,10.6107455 15.8298154,10.974603 15.8298154,11.4234439 L15.8298154,16.2006554 C15.8298154,16.6494963 15.4659579,17.0133538 15.017117,17.0133538 L1.96063865,17.0133538 C1.51179771,17.0133538 1.14794023,16.6494963 1.14794023,16.2006554 Z M22.0448457,18.2707139 C22.4390238,14.7243537 22.6655509,12.2205199 22.7244271,10.7592126 C22.7620805,9.82465719 22.7783312,8.6847932 22.7731794,7.33962066 C22.770833,6.72696375 22.7574419,5.3623062 22.7330061,3.24564803 C22.7284223,2.84410829 23.0501762,2.51483862 23.4517154,2.51020304 C23.4545131,2.51017074 23.4573109,2.51015459 23.4601088,2.51015459 L38.3310981,2.51015459 C38.6132931,2.51015459 38.8420573,2.28139035 38.8420573,1.99919535 C38.8420573,1.71700035 38.6132931,1.4882361 38.3310981,1.4882361 L30.9888242,1.4882361 L30.9888242,1.4882361 L30.9888242,0.513955045 C30.9888242,0.230105511 30.7587187,-3.55792791e-14 30.4748692,-3.55271368e-14 C30.1910197,-3.54749945e-14 29.9609142,0.230105511 29.9609142,0.513955045 L29.9609142,1.4882361 L29.9609142,1.4882361 L23.1643197,1.4882361 C22.3611464,1.48826463 21.7100458,2.13936523 21.7100458,2.94253853 C21.7100458,2.94696965 21.710066,2.95140074 21.7101065,2.95583168 C21.7313676,5.28170491 21.7430885,6.72934233 21.7452693,7.29874392 C21.7504211,8.64391646 21.7341704,9.78378045 21.696517,10.7183359 C21.6376367,12.1797451 21.4110821,14.6838262 21.0168532,18.2305792 C20.9876691,18.4933728 21.1770239,18.730086 21.4398147,18.7592958 C21.4510694,18.7605468 21.462365,18.761398 21.4736801,18.761848 C21.7634503,18.7733713 22.012835,18.5589411 22.0448457,18.2707139 Z M35.449954,7.65111379 L35.449954,5.89805878 C35.449954,5.49646425 35.7755107,5.17090757 36.1771052,5.17090757 L37.7965848,5.17090757 C38.0787798,5.17090757 38.3075441,4.94214332 38.3075441,4.65994832 C38.3075441,4.37775332 38.0787798,4.14898908 37.7965848,4.14898908 L35.449954,4.14898908 L35.449954,4.14898908 L35.449954,3.81481169 C35.449954,3.52528516 35.2152464,3.29057754 34.9257199,3.29057754 C34.6361934,3.29057754 34.4014857,3.52528516 34.4014857,3.81481169 L34.4014857,4.14898908 L34.4014857,4.14898908 L32.0754131,4.14898908 C31.7932181,4.14898908 31.5644539,4.37775332 31.5644539,4.65994832 C31.5644539,4.94214332 31.7932181,5.17090757 32.0754131,5.17090757 L33.6743345,5.17090757 C34.0759291,5.17090757 34.4014857,5.49646425 34.4014857,5.89805878 L34.4014857,7.65111379 C34.4014857,7.94064031 34.6361934,8.17534793 34.9257199,8.17534793 C35.2152464,8.17534793 35.449954,7.94064031 35.449954,7.65111379 Z M27.6583956,7.66139289 L27.6583956,5.89805878 C27.6583956,5.49646425 27.9839522,5.17090757 28.3855468,5.17090757 L30.0050264,5.17090757 C30.2872214,5.17090757 30.5159856,4.94214332 30.5159856,4.65994832 C30.5159856,4.37775332 30.2872214,4.14898908 30.0050264,4.14898908 L27.6583956,4.14898908 L27.6583956,4.14898908 L27.6583956,3.80453259 C27.6583956,3.52068305 27.42829,3.29057754 27.1444405,3.29057754 C26.860591,3.29057754 26.6304855,3.52068305 26.6304855,3.80453259 L26.6304855,4.14898908 L26.6304855,4.14898908 L24.2632965,4.14898908 C23.9811015,4.14898908 23.7523372,4.37775332 23.7523372,4.65994832 C23.7523372,4.94214332 23.9811015,5.17090757 24.2632965,5.17090757 L25.9033343,5.17090757 C26.3049288,5.17090757 26.6304855,5.49646425 26.6304855,5.89805878 L26.6304855,7.66139289 C26.6304855,7.94524242 26.860591,8.17534793 27.1444405,8.17534793 C27.42829,8.17534793 27.6583956,7.94524242 27.6583956,7.66139289 Z M30.3443853,7.28946099 L29.6014405,6.00264287 C29.4566772,5.75190555 29.1360607,5.6659966 28.8853233,5.81075986 C28.634586,5.95552312 28.5486771,6.27613969 28.6934403,6.52687702 L29.4363851,7.81369513 C29.5811484,8.06443246 29.901765,8.15034141 30.1525023,8.00557815 C30.4032396,7.86081489 30.4891486,7.54019831 30.3443853,7.28946099 Z M38.1424605,7.3035025 L37.3892366,5.99888046 C37.2473118,5.75305956 36.9329818,5.66883509 36.6871609,5.81075986 C36.44134,5.95268463 36.3571156,6.2670146 36.4990403,6.51283551 L37.2522642,7.81745754 C37.394189,8.06327845 37.708519,8.14750291 37.9543399,8.00557815 C38.2001608,7.86365338 38.2843852,7.54932341 38.1424605,7.3035025 Z M24.8281753,7.81745754 L25.5813992,6.51283551 C25.7233239,6.2670146 25.6390995,5.95268463 25.3932786,5.81075986 C25.1474577,5.66883509 24.8331277,5.75305956 24.6912029,5.99888046 L23.937979,7.3035025 C23.7960543,7.54932341 23.8802787,7.86365338 24.1260996,8.00557815 C24.3719205,8.14750291 24.6862505,8.06327845 24.8281753,7.81745754 Z M32.6197338,7.81745754 L33.3729576,6.51283551 C33.5148824,6.2670146 33.4306579,5.95268463 33.184837,5.81075986 C32.9390161,5.66883509 32.6246862,5.75305956 32.4827614,5.99888046 L31.7295375,7.3035025 C31.5876127,7.54932341 31.6718372,7.86365338 31.9176581,8.00557815 C32.163479,8.14750291 32.477809,8.06327845 32.6197338,7.81745754 Z M39.2532214,17.7424352 C39.2532214,17.4602402 39.0244571,17.231476 38.7422621,17.231476 L32.6745968,17.231476 L32.6745968,17.231476 C32.3251074,17.231476 32.0372925,16.7067783 32.0372925,16.359326 L32.0372925,15.8248889 C32.0372925,15.4232944 32.3628492,15.0977377 32.7644437,15.0977377 L36.4367477,15.0977377 L36.4367477,15.0977377 C37.5092417,15.0977377 38.1019621,14.3079753 38.1019621,13.2189486 L38.1019621,11.1803232 C38.1019621,10.1352612 37.5092417,9.44252686 36.4367477,9.44252686 L28.6863056,9.44252686 L28.6863056,9.01631689 C28.6863056,8.73246736 28.4562001,8.50236185 28.1723506,8.50236185 C27.8885011,8.50236185 27.6583956,8.73246736 27.6583956,9.01631689 L27.6583956,9.44252686 L27.6583956,9.44252686 L25.972623,9.44252686 C24.9481804,9.44252686 24.3074087,10.1352612 24.3074087,11.1803232 L24.3074087,13.2189486 C24.3074087,14.2355339 24.9735236,15.0977377 25.972623,15.0977377 L29.1218122,15.0977377 C28.8840793,15.3288419 28.6083986,15.5462418 28.2947702,15.7499373 C27.6769599,16.1511931 26.2709184,16.6077128 24.0766459,17.1194964 C23.8067383,17.1824259 23.6386891,17.4519324 23.7009417,17.7219969 C23.7633233,17.9926209 24.0332778,18.1614348 24.3039018,18.0990531 C24.3047531,18.0988569 24.3056039,18.0986584 24.3064481,18.0984318 C26.7025463,17.5329385 28.2278416,17.0140874 28.8823339,16.5418783 C29.5805984,16.0380879 30.0926822,15.5567077 30.4185852,15.0977377 C30.7448735,15.0977377 31.0093824,15.3622466 31.0093824,15.6885349 L31.0093824,16.359326 L31.0093824,16.359326 C31.0093824,17.2790526 31.7494777,18.2533945 32.6745968,18.2533945 L38.7422621,18.2533945 C39.0244571,18.2533945 39.2532214,18.0246302 39.2532214,17.7424352 Z M36.5834689,11.6709063 L31.7252111,11.6709063 L31.7252111,11.6709063 L31.8790326,11.0748573 C31.9721964,10.7138532 32.2978005,10.4616095 32.6706322,10.4616095 L36.4367477,10.4616095 L36.4367477,10.4616095 C36.7862371,10.4616095 37.074052,10.8328709 37.074052,11.1803232 C37.074052,11.4512648 36.8544105,11.6709063 36.5834689,11.6709063 Z M30.4838534,11.6709063 L25.84646,11.6709063 C25.5755185,11.6709063 25.355877,11.4512648 25.355877,11.1803232 L25.355877,11.1803232 L25.355877,11.1803232 C25.355877,10.8328709 25.6436918,10.4616095 25.972623,10.4616095 L29.7388178,10.4616095 C30.1903298,10.4616095 30.5563526,10.8276323 30.5563526,11.2791443 C30.5563526,11.3456151 30.5482459,11.4118378 30.5322122,11.4763459 L30.4838534,11.6709063 L30.4838534,11.6709063 Z M36.4367477,13.9604058 L32.3136367,13.9604058 C31.8621247,13.9604058 31.4961019,13.594383 31.4961019,13.142871 C31.4961019,13.0697623 31.5059084,12.996984 31.5252591,12.9264827 L31.5704065,12.761995 L31.5704065,12.761995 L36.6170983,12.761995 C36.8694668,12.761995 37.074052,12.9665801 37.074052,13.2189486 L37.074052,13.2189486 L37.074052,13.2189486 C37.074052,13.5664009 36.7862371,13.9604058 36.4367477,13.9604058 Z M29.3299916,13.9604058 L25.972623,13.9604058 L25.972623,13.9604058 C25.6436918,13.9604058 25.355877,13.5664009 25.355877,13.2189486 C25.355877,12.9665801 25.5604621,12.761995 25.8128306,12.761995 L30.3139971,12.761995 L30.3139971,12.761995 L30.1072807,13.3962179 C29.99761,13.7326966 29.6838921,13.9604058 29.3299916,13.9604058 Z M42.3284049,18.4766635 C43.0471426,18.0511647 43.5666295,17.7148557 43.8868657,17.4677364 C46.4527231,15.4877202 46.5676001,12.2495352 46.5676001,8.32704662 L46.5676001,0.513955161 C46.5676001,0.230105564 46.3374945,-3.55792791e-14 46.0536449,-3.55271368e-14 C45.7697953,-3.54749945e-14 45.5396898,0.230105564 45.5396898,0.513955161 L45.5396898,8.32704662 L45.5396898,8.32704662 C45.5396898,11.929672 45.488699,14.9764831 43.1021119,16.760433 C42.8353187,16.9598583 42.4119632,17.2278602 41.8320453,17.564439 C41.5820028,17.7095518 41.4920609,18.0267894 41.6287279,18.2815463 C41.760086,18.5264071 42.0650717,18.6184193 42.3099326,18.4870612 C42.3161596,18.4837206 42.3223156,18.4802492 42.3284049,18.4766635 Z M54.3591583,18.2683313 L54.3591583,6.67035199 C54.3591583,6.26875746 54.684715,5.94320078 55.0863096,5.94320078 L57.4147163,5.94320078 C57.8163108,5.94320078 58.1418675,6.26875746 58.1418675,6.67035199 L58.1418675,13.92716 L58.1418675,13.92716 C58.1418675,14.6833796 57.5456796,15.3169691 56.7439097,15.3169691 L56.4530991,15.3169691 C56.1709041,15.3169691 55.9421399,15.5457334 55.9421399,15.8279284 C55.9421399,16.1101234 56.1709041,16.3388876 56.4530991,16.3388876 L56.7439097,16.3388876 L56.7439097,16.3388876 C58.1007511,16.3388876 59.1903358,15.2352156 59.1903358,13.92716 L59.1529749,6.36839658 C59.1490188,5.56802302 58.4990735,4.92128229 57.6986902,4.92128229 L54.3591583,4.92128229 L54.3591583,4.92128229 L54.3591583,3.23730581 C54.3591583,2.83571128 54.684715,2.51015459 55.0863096,2.51015459 L58.8644003,2.51015459 C59.1465953,2.51015459 59.3753596,2.28139035 59.3753596,1.99919535 C59.3753596,1.71700035 59.1465953,1.4882361 58.8644003,1.4882361 L48.8465645,1.4882361 C48.5643695,1.4882361 48.3356052,1.71700035 48.3356052,1.99919535 C48.3356052,2.28139035 48.5643695,2.51015459 48.8465645,2.51015459 L52.604097,2.51015459 C53.0056916,2.51015459 53.3312483,2.83571128 53.3312483,3.23730581 L53.3312483,4.92128229 L53.3312483,4.92128229 L49.9749315,4.92128229 C49.1717424,4.92128229 48.520629,5.57239566 48.520629,6.37558471 L48.520629,15.8453709 C48.520629,16.1292205 48.7507345,16.359326 49.0345841,16.359326 C49.3184336,16.359326 49.5485391,16.1292205 49.5485391,15.8453709 L49.5485391,6.67035199 C49.5485391,6.26875746 49.8740958,5.94320078 50.2756903,5.94320078 L52.604097,5.94320078 C53.0056916,5.94320078 53.3312483,6.26875746 53.3312483,6.67035199 L53.3312483,18.2683313 C53.3312483,18.5521809 53.5613538,18.7822864 53.8452033,18.7822864 C54.1290528,18.7822864 54.3591583,18.5521809 54.3591583,18.2683313 Z M43.1630386,13.0377887 L43.1630386,4.66294412 C43.1630386,4.37909459 42.932933,4.14898908 42.6490835,4.14898908 C42.365234,4.14898908 42.1351285,4.37909459 42.1351285,4.66294412 L42.1351285,13.0377887 C42.1351285,13.3216382 42.365234,13.5517437 42.6490835,13.5517437 C42.932933,13.5517437 43.1630386,13.3216382 43.1630386,13.0377887 Z" id="占魔师"></path>
                    <path d="M36.1650794,15.7257143 C36.456826,15.7257143 36.6933333,15.9622216 36.6933333,16.2539683 C36.6933333,16.5191924 36.4978727,16.7387644 36.2431409,16.7764946 L36.1650794,16.7822222 L34.5396825,16.7822222 C34.2479359,16.7822222 34.0114286,16.5457149 34.0114286,16.2539683 C34.0114286,15.9887441 34.2068892,15.7691721 34.461621,15.7314419 L34.5396825,15.7257143 L36.1650794,15.7257143 Z" id="路径-2"></path>
                    <path d="M0.398680667,28.1200152 C0.470198128,28.117848 0.568805535,28.0755877 0.69450289,27.9932343 C1.07159495,27.7418396 1.41184469,27.4611877 1.7152521,27.1512787 C2.0186595,26.8413697 2.28522458,26.495702 2.51494733,26.1142756 C2.74467009,25.7328491 2.93863411,25.3134967 3.0968394,24.8562184 C3.25504469,24.3989401 3.37532405,23.8972343 3.45767749,23.351101 C3.52269337,22.8699835 3.32331136,22.6294248 2.85953146,22.6294248 L2.85953146,22.6294248 L1.56571559,22.6294248 C1.59172194,22.5340681 1.61772829,22.4300428 1.64373464,22.3173486 C1.66974098,22.20032 1.66649019,22.111465 1.63398225,22.0507835 C1.60147432,21.990102 1.54621083,21.9554269 1.46819178,21.9467581 C1.37283516,21.9337549 1.3024013,21.9532597 1.25689019,22.0052724 C1.21137908,22.0572851 1.17778755,22.1483073 1.15611559,22.278339 C1.12144046,22.4733867 1.07267855,22.6781867 1.00982987,22.892739 C0.946981197,23.1072914 0.872212943,23.3218438 0.785525112,23.5363962 C0.698837281,23.7509486 0.600229874,23.9589994 0.48970289,24.1605486 C0.379175906,24.3620978 0.261063736,24.5495602 0.135366382,24.7229359 C0.0573473341,24.8269613 0.0129198209,24.9136491 0.00208384208,24.9829994 C-0.00875213675,25.0523496 0.0226722019,25.1238671 0.096356858,25.1975517 C0.152703948,25.2538988 0.222054212,25.2712364 0.304407652,25.2495644 C0.386761091,25.2278925 0.462612943,25.1628766 0.531963207,25.0545168 C0.570972731,24.9938353 0.609982255,24.9320703 0.648991779,24.8692216 C0.688001302,24.8063729 0.72484363,24.7446078 0.759518763,24.6839263 C1.00657908,24.8399644 1.24497061,25.0035877 1.47469337,25.1747962 C1.70441612,25.3460047 1.93847326,25.5356343 2.17686479,25.7436851 C1.95581083,26.1251115 1.69683093,26.4696957 1.39992511,26.7774375 C1.10301929,27.0851793 0.78119072,27.3387412 0.434439398,27.5381232 C0.308742043,27.6118078 0.229639398,27.6854925 0.197131461,27.7591771 C0.164623525,27.8328618 0.170041514,27.9065465 0.213385429,27.9802311 C0.265398128,28.0755877 0.327163207,28.1221824 0.398680667,28.1200152 Z M4.30288384,28.1882819 C4.3765685,28.1882819 4.43724998,28.161192 4.48492829,28.1070121 C4.53260659,28.0528322 4.55644575,27.9845655 4.55644575,27.9022121 L4.55644575,27.9022121 L4.55644575,24.3913549 C4.73849019,24.6644216 4.91620024,24.951575 5.08957591,25.2528152 C5.26295157,25.5540554 5.44066162,25.8780512 5.62270606,26.2248025 C5.68338755,26.3461655 5.74515263,26.4252681 5.8080013,26.4621105 C5.87084998,26.4989528 5.94561823,26.4913676 6.03230606,26.4393549 C6.11899389,26.3873422 6.16233781,26.3190756 6.16233781,26.2345549 C6.16233781,26.1500343 6.12332829,26.0362565 6.04530924,25.8932216 C5.91961188,25.6591644 5.79824892,25.4435285 5.68122035,25.2463137 C5.56419178,25.0490988 5.44716321,24.8583856 5.33013464,24.674174 C5.21310606,24.4899623 5.0917431,24.3068343 4.96604575,24.1247898 C4.84034839,23.9427454 4.70381506,23.7520322 4.55644575,23.5526502 L4.55644575,23.5526502 L4.55644575,22.2653359 C4.55644575,22.178648 4.53260659,22.1103814 4.48492829,22.0605359 C4.43724998,22.0106904 4.3765685,21.9857676 4.30288384,21.9857676 C4.22486479,21.9857676 4.16309972,22.0106904 4.1175886,22.0605359 C4.07207749,22.1103814 4.04932194,22.178648 4.04932194,22.2653359 L4.04932194,22.2653359 L4.04932194,27.9022121 C4.04932194,27.9845655 4.07207749,28.0528322 4.1175886,28.1070121 C4.16309972,28.161192 4.22486479,28.1882819 4.30288384,28.1882819 Z M2.41092194,25.288574 C2.1725304,25.0848576 1.93738966,24.8995623 1.70549972,24.7326883 C1.47360977,24.5658142 1.23630183,24.4065253 0.993575906,24.2548216 C1.15828278,23.9254078 1.3056521,23.5461486 1.43568384,23.1170438 L1.43568384,23.1170438 L2.83352511,23.1170438 C2.88120342,23.1170438 2.91479495,23.1332978 2.93429972,23.1658057 C2.95380448,23.1983137 2.95705527,23.2579115 2.9440521,23.3445994 C2.91804575,23.5353126 2.8887886,23.7162734 2.85628067,23.8874819 C2.82377273,24.0586904 2.78584681,24.2233972 2.74250289,24.3816025 C2.69915897,24.5398078 2.65039707,24.6936787 2.59621718,24.8432152 C2.54203728,24.9927517 2.4802722,25.1412047 2.41092194,25.288574 Z M13.9902489,23.1365486 C14.0639336,23.1365486 14.1278659,23.1170438 14.1820457,23.0780343 C14.2362256,23.0390248 14.2633156,22.9783433 14.2633156,22.8959898 C14.2633156,22.8179708 14.2383928,22.7562057 14.1885473,22.7106946 C14.1387018,22.6651835 14.0726024,22.6424279 13.9902489,22.6424279 L13.9902489,22.6424279 L12.7809537,22.6424279 C12.7419442,22.5427369 12.701851,22.4527983 12.6606743,22.3726121 C12.6194976,22.2924258 12.5815717,22.2154904 12.5468965,22.1418057 C12.4862151,22.0291115 12.4233664,21.9651793 12.3583505,21.9500089 C12.2933346,21.9348385 12.2261516,21.9510925 12.1568013,21.9987708 C12.0831166,22.0507835 12.0376055,22.1071306 12.020268,22.1678121 C12.0029304,22.2284935 12.0246024,22.3086798 12.0852838,22.4083708 C12.1026214,22.4430459 12.1221262,22.4798883 12.1437981,22.5188978 C12.1654701,22.5579073 12.187142,22.599084 12.208814,22.6424279 L12.208814,22.6424279 L11.0190235,22.6424279 C10.9323357,22.6424279 10.8684034,22.6651835 10.8272267,22.7106946 C10.78605,22.7562057 10.7654616,22.8179708 10.7654616,22.8959898 C10.7654616,22.9696745 10.7882172,23.0281888 10.8337283,23.0715327 C10.8792394,23.1148766 10.9410045,23.1365486 11.0190235,23.1365486 L11.0190235,23.1365486 L13.9902489,23.1365486 Z M14.7379315,28.2142883 C14.8159505,28.2142883 14.8777156,28.1969507 14.9232267,28.1622756 C14.9687378,28.1276004 14.9914934,28.0669189 14.9914934,27.9802311 L14.9914934,27.9802311 L14.9914934,27.2195454 C15.0218341,27.2498861 15.0673452,27.2780597 15.1280267,27.304066 C15.2797304,27.3604131 15.4205981,27.403757 15.5506299,27.4340978 C15.6806616,27.4644385 15.7976902,27.4796089 15.9017156,27.4796089 C16.0577537,27.4796089 16.1932034,27.4492681 16.3080648,27.3885867 C16.4229262,27.3279052 16.5182828,27.2444681 16.5941346,27.1382756 C16.6699865,27.032083 16.7274172,26.905302 16.7664267,26.7579327 C16.8054362,26.6105634 16.8271082,26.4480237 16.8314426,26.2703137 C16.835777,26.0319221 16.7783463,25.7837782 16.6591505,25.5258819 C16.5399547,25.2679856 16.3416563,25.0003369 16.0642553,24.7229359 C16.016577,24.6752576 15.9916542,24.6243285 15.989487,24.5701486 C15.9873198,24.5159687 16.0122426,24.4195285 16.0642553,24.2808279 L16.0642553,24.2808279 L16.6103886,22.8894883 C16.6407293,22.8158036 16.6515653,22.7464533 16.6428965,22.6814375 C16.6342278,22.6164216 16.6103886,22.5589909 16.5713791,22.5091454 C16.5323696,22.4592999 16.4814405,22.4192068 16.4185918,22.388866 C16.3557431,22.3585253 16.2853092,22.3433549 16.2072902,22.3433549 L16.2072902,22.3433549 L15.0174997,22.3433549 C14.8311209,22.3433549 14.6945875,22.3877824 14.6078997,22.4766375 C14.5212119,22.5654925 14.477868,22.7139454 14.477868,22.9219962 L14.477868,22.9219962 L14.477868,27.9802311 C14.477868,28.0712533 14.4995399,28.1330184 14.5428838,28.1655263 C14.5862278,28.1980343 14.6512436,28.2142883 14.7379315,28.2142883 Z M15.9082172,26.9659835 C15.7435103,26.9529803 15.5484627,26.9031348 15.3230743,26.816447 C15.2450553,26.7861062 15.1789558,26.7741867 15.1247759,26.7806883 C15.070596,26.7871898 15.0261685,26.8207814 14.9914934,26.8814629 L14.9914934,26.8814629 L14.9914934,22.9740089 C14.9914934,22.8786523 15.0240013,22.830974 15.0890172,22.830974 L15.0890172,22.830974 L16.0122426,22.830974 C16.0859272,22.830974 16.105432,22.8721507 16.0707569,22.9545041 L16.0707569,22.9545041 L15.5701346,24.1833041 C15.49645,24.3610142 15.463942,24.5148851 15.4726108,24.6449168 C15.4812796,24.7749486 15.5527971,24.9071475 15.6871632,25.0415137 C15.9038828,25.2625676 16.0675061,25.4792872 16.178033,25.6916724 C16.28856,25.9040576 16.3416563,26.1056068 16.3373219,26.29632 C16.3373219,26.3830078 16.3254024,26.4675285 16.3015632,26.5498819 C16.2777241,26.6322353 16.2473833,26.7048364 16.210541,26.7676851 C16.1736987,26.8305338 16.1292711,26.8803793 16.0772584,26.9172216 C16.0252457,26.9540639 15.9688987,26.9703179 15.9082172,26.9659835 Z M14.1202807,25.0155073 C14.1939653,25.0155073 14.2578976,24.9960025 14.3120775,24.956993 C14.3662574,24.9179835 14.3933473,24.857302 14.3933473,24.7749486 C14.3933473,24.6969295 14.3684246,24.6351644 14.3185791,24.5896533 C14.2687336,24.5441422 14.2026341,24.5213867 14.1202807,24.5213867 L14.1202807,24.5213867 L13.359595,24.5213867 C13.4116077,24.3956893 13.4647039,24.2624068 13.5188838,24.121539 C13.5730637,23.9806713 13.6239928,23.8408872 13.6716711,23.7021867 C13.7193495,23.5634861 13.725851,23.4659623 13.6911759,23.4096152 C13.6565008,23.3532681 13.6044881,23.3164258 13.5351378,23.2990883 C13.44845,23.2774163 13.3790997,23.2839179 13.327087,23.318593 C13.2750743,23.3532681 13.2317304,23.4269528 13.1970553,23.539647 C13.1407082,23.7216914 13.0832775,23.8928999 13.0247632,24.0532724 C12.9662489,24.2136449 12.9001495,24.369683 12.8264648,24.5213867 L12.8264648,24.5213867 L12.1437981,24.5213867 C12.1611357,24.4823771 12.1654701,24.436866 12.1568013,24.3848533 C12.1481325,24.3328406 12.1329621,24.2743263 12.1112902,24.2093105 C12.0679463,24.0922819 12.025686,23.9828385 11.9845092,23.8809803 C11.9433325,23.7791221 11.8902362,23.6523412 11.8252204,23.5006375 C11.7732077,23.3792745 11.7146934,23.3088406 11.6496775,23.2893359 C11.5846616,23.2698311 11.510977,23.2839179 11.4286235,23.3315962 C11.3549389,23.3706057 11.3137621,23.4172004 11.3050934,23.4713803 C11.2964246,23.5255602 11.3180965,23.6089972 11.3701092,23.7216914 C11.4394595,23.8690607 11.4936394,23.9904237 11.5326489,24.0857803 C11.5716584,24.1811369 11.6085008,24.2829951 11.6431759,24.3913549 C11.6648479,24.447702 11.6843526,24.4910459 11.7016902,24.5213867 L11.7016902,24.5213867 L10.8889918,24.5213867 C10.8023039,24.5213867 10.7383717,24.5441422 10.697195,24.5896533 C10.6560182,24.6351644 10.6354299,24.6969295 10.6354299,24.7749486 C10.6354299,24.8486332 10.6581854,24.9071475 10.7036965,24.9504914 C10.7492077,24.9938353 10.8109727,25.0155073 10.8889918,25.0155073 L10.8889918,25.0155073 L14.1202807,25.0155073 Z M13.3010807,27.9802311 C13.426778,27.9802311 13.5286362,27.9704787 13.6066553,27.950974 C13.6846743,27.9314692 13.7464394,27.8978777 13.7919505,27.8501994 C13.8374616,27.8025211 13.8678024,27.7385888 13.8829727,27.6584025 C13.8981431,27.5782163 13.9057283,27.4774417 13.9057283,27.3560787 L13.9057283,27.3560787 L13.9057283,26.107774 C13.9057283,25.986411 13.8981431,25.88672 13.8829727,25.808701 C13.8678024,25.7306819 13.8396288,25.6678332 13.7984521,25.6201549 C13.7572754,25.5724766 13.6965939,25.5388851 13.6164077,25.5193803 C13.5362214,25.4998756 13.4311124,25.4901232 13.3010807,25.4901232 L13.3010807,25.4901232 L11.6756838,25.4901232 C11.5543209,25.4901232 11.4557135,25.4977084 11.3798616,25.5128787 C11.3040098,25.5280491 11.2433283,25.5583898 11.1978172,25.603901 C11.1523061,25.6494121 11.1208817,25.7122607 11.1035442,25.792447 C11.0862066,25.8726332 11.0775378,25.9777422 11.0775378,26.107774 L11.0775378,26.107774 L11.0775378,27.3560787 C11.0775378,27.4861105 11.0872902,27.5912195 11.106795,27.6714057 C11.1262997,27.751592 11.1588077,27.8144406 11.2043188,27.8599517 C11.2498299,27.9054629 11.311595,27.9368872 11.389614,27.9542248 C11.467633,27.9715623 11.5651569,27.9802311 11.6821854,27.9802311 L11.6821854,27.9802311 L13.3010807,27.9802311 Z M13.3075823,27.4861105 L11.6691823,27.4861105 C11.6431759,27.4861105 11.6204204,27.4741909 11.6009156,27.4503517 C11.5814108,27.4265126 11.5716584,27.3972554 11.5716584,27.3625803 L11.5716584,27.3625803 L11.5716584,26.0882692 C11.5716584,26.0145846 11.6019992,25.9777422 11.6626807,25.9777422 L11.6626807,25.9777422 L13.3075823,25.9777422 C13.3769325,25.9777422 13.4116077,26.0145846 13.4116077,26.0882692 L13.4116077,26.0882692 L13.4116077,27.3625803 C13.4116077,27.4449338 13.3769325,27.4861105 13.3075823,27.4861105 L13.3075823,27.4861105 Z M21.5938553,28.1525232 C21.6653727,28.1633592 21.7726489,28.1492724 21.9156838,28.1102629 C22.2537664,28.023575 22.5463378,27.9249676 22.7933981,27.8144406 C23.0404584,27.7039137 23.2593452,27.5792999 23.4500584,27.4405994 C23.5497495,27.4839433 23.6472733,27.5262036 23.7426299,27.5673803 C23.8379865,27.608557 23.9268415,27.646483 24.009195,27.6811581 C24.1392267,27.7418396 24.2378341,27.7667623 24.3050172,27.7559263 C24.3722002,27.7450904 24.4231293,27.7028301 24.4578045,27.6291454 C24.496814,27.5381232 24.5011484,27.4655221 24.4708077,27.4113422 C24.4404669,27.3571623 24.3732838,27.3062332 24.2692584,27.2585549 C24.2042426,27.2282142 24.1359759,27.198957 24.0644584,27.1707835 C23.992941,27.1426099 23.9203399,27.1111856 23.8466553,27.0765105 C23.9506807,26.9594819 24.0471209,26.8305338 24.1359759,26.689666 C24.2248309,26.5487983 24.308268,26.396011 24.386287,26.2313041 C24.5119844,25.9712406 24.5379907,25.7859454 24.4643061,25.6754184 C24.3906214,25.5648914 24.2237473,25.5096279 23.9636838,25.5096279 L23.9636838,25.5096279 L23.1379823,25.5096279 C23.146651,25.487956 23.1553198,25.4684512 23.1639886,25.4511137 C23.1726574,25.4337761 23.1813262,25.4164385 23.189995,25.399101 C23.2116669,25.3514226 23.2279209,25.3102459 23.2387569,25.2755708 C23.2495928,25.2408957 23.2506764,25.2083877 23.2420077,25.178047 C23.3070235,25.1693782 23.3547018,25.1444554 23.3850426,25.1032787 C23.4153833,25.062102 23.4305537,24.9981697 23.4305537,24.9114819 L23.4305537,24.9114819 L23.4305537,24.2028089 C23.6039293,24.358847 23.7816394,24.5235539 23.9636838,24.6969295 C24.0503717,24.7836174 24.1294743,24.8345465 24.2009918,24.8497168 C24.2725092,24.8648872 24.3429431,24.8312957 24.4122934,24.7489422 C24.5206532,24.6232449 24.4816436,24.4823771 24.2952648,24.326339 C24.1739018,24.226648 24.0568733,24.1312914 23.9441791,24.0402692 C23.8314849,23.949247 23.7014532,23.8473888 23.5540838,23.7346946 L23.5540838,23.7346946 L24.4578045,23.7346946 C24.5531611,23.7346946 24.6214278,23.717357 24.6626045,23.6826819 C24.7037812,23.6480068 24.7243696,23.5873253 24.7243696,23.5006375 C24.7243696,23.4139496 24.7037812,23.3532681 24.6626045,23.318593 C24.6214278,23.2839179 24.5531611,23.2665803 24.4578045,23.2665803 L24.4578045,23.2665803 L24.1132204,23.2665803 C24.1218891,23.2579115 24.1316415,23.2481592 24.1424775,23.2373232 C24.1533135,23.2264872 24.1630659,23.2124004 24.1717346,23.1950629 C24.2324161,23.108375 24.2909304,23.0184364 24.3472775,22.925247 C24.4036246,22.8320576 24.4556373,22.7377846 24.5033156,22.6424279 C24.6030066,22.4473803 24.5835018,22.3173486 24.4448013,22.2523327 C24.3711166,22.2176576 24.3039336,22.2122396 24.2432521,22.2360787 C24.1825706,22.2599179 24.1283907,22.321683 24.0807124,22.421374 C24.0460373,22.499393 24.0048606,22.5774121 23.9571823,22.6554311 C23.9095039,22.7334502 23.8488225,22.8223052 23.7751378,22.9219962 C23.666778,23.0736999 23.6537748,23.1885613 23.7361283,23.2665803 L23.7361283,23.2665803 L23.4305537,23.2665803 L23.4305537,22.2393295 C23.4305537,22.1396385 23.4077981,22.0702883 23.362287,22.0312787 C23.3167759,21.9922692 23.2593452,21.9727644 23.189995,21.9727644 C23.1076415,21.9727644 23.0458764,21.9922692 23.0046997,22.0312787 C22.963523,22.0702883 22.9429346,22.1396385 22.9429346,22.2393295 L22.9429346,22.2393295 L22.9429346,23.2665803 L22.5463378,23.2665803 C22.6026849,23.2275708 22.6308584,23.1744745 22.6308584,23.1072914 C22.6308584,23.0401084 22.5896817,22.9566713 22.5073283,22.8569803 C22.4336436,22.7702925 22.3621262,22.6846883 22.2927759,22.6001676 C22.2234256,22.515647 22.149741,22.4300428 22.0717219,22.3433549 C22.0110405,22.278339 21.950359,22.2404131 21.8896775,22.2295771 C21.828996,22.2187412 21.7683145,22.2436639 21.707633,22.3043454 C21.6469516,22.3693613 21.6198616,22.4322099 21.6263632,22.4928914 C21.6328648,22.5535729 21.6664563,22.6164216 21.7271378,22.6814375 C21.81816,22.7811285 21.8929283,22.8645655 21.9514426,22.9317486 C22.0099569,22.9989316 22.0760563,23.0823687 22.149741,23.1820597 C22.1627442,23.1993972 22.1757473,23.2156512 22.1887505,23.2308216 C22.2017537,23.245992 22.2147569,23.2579115 22.22776,23.2665803 L22.22776,23.2665803 L21.7466426,23.2665803 C21.6556204,23.2665803 21.5906045,23.2839179 21.551595,23.318593 C21.5125854,23.3532681 21.4930807,23.4139496 21.4930807,23.5006375 C21.4930807,23.5829909 21.5125854,23.6425888 21.551595,23.6794311 C21.5906045,23.7162734 21.6556204,23.7346946 21.7466426,23.7346946 L21.7466426,23.7346946 L22.7283823,23.7346946 C22.5506722,23.9297422 22.3794637,24.1009507 22.2147569,24.24832 C22.05005,24.3956893 21.8745071,24.5452258 21.6881283,24.6969295 C21.5841029,24.7836174 21.5223378,24.8594692 21.502833,24.9244851 C21.4833283,24.989501 21.5039166,25.0545168 21.5645981,25.1195327 C21.6816267,25.2495644 21.8268288,25.2387285 22.0002045,25.0870248 C22.1952521,24.9179835 22.3664606,24.7641126 22.5138299,24.6254121 C22.6611992,24.4867115 22.8042341,24.3458438 22.9429346,24.2028089 L22.9429346,24.2028089 L22.943657,24.9504914 C22.9446202,24.9736082 22.9465466,24.9909457 22.9494362,25.0025041 C22.8714172,25.0241761 22.8085685,25.0870248 22.7608902,25.1910502 C22.7132119,25.2864068 22.6568648,25.3925994 22.5918489,25.5096279 L22.5918489,25.5096279 L21.7141346,25.5096279 C21.6231124,25.5096279 21.5559293,25.5258819 21.5125854,25.5583898 C21.4692415,25.5908978 21.4475696,25.6504957 21.4475696,25.7371835 C21.4475696,25.8238713 21.4692415,25.8845528 21.5125854,25.9192279 C21.5559293,25.9539031 21.6231124,25.9712406 21.7141346,25.9712406 L21.7141346,25.9712406 L22.338287,25.9712406 C22.3122807,26.0189189 22.2873579,26.0633465 22.2635188,26.1045232 C22.2396796,26.1456999 22.2169241,26.1836258 22.1952521,26.218301 C22.0565516,26.4480237 21.9958701,26.6235666 22.0132077,26.7449295 C22.0305452,26.8662925 22.1367378,26.9594819 22.3317854,27.0244978 C22.4184733,27.0548385 22.5084119,27.0862629 22.6016013,27.1187708 C22.6947907,27.1512787 22.7912309,27.1848703 22.8909219,27.2195454 C22.7435526,27.3018988 22.5777621,27.3777507 22.3935505,27.447101 C22.2093389,27.5164512 21.9980373,27.5858015 21.7596457,27.6551517 C21.6209452,27.6941613 21.5320902,27.735338 21.4930807,27.7786819 C21.4540711,27.8220258 21.4432352,27.8913761 21.4605727,27.9867327 C21.4779103,28.0864237 21.5223378,28.1416872 21.5938553,28.1525232 Z M24.5780838,28.1622756 C24.6539357,28.1709443 24.7547103,28.1319348 24.8804077,28.045247 C25.127468,27.8632025 25.3496055,27.6746565 25.5468204,27.4796089 C25.7440352,27.2845613 25.9228288,27.0743433 26.0832013,26.8489549 C26.2219018,27.0700089 26.3757727,27.2769761 26.544814,27.4698565 C26.7138553,27.6627369 26.8958997,27.8415306 27.0909473,28.0062375 C27.1949727,28.0929253 27.2827442,28.1406036 27.3542616,28.1492724 C27.4257791,28.1579412 27.4897114,28.1254332 27.5460584,28.0517486 C27.5980711,27.9780639 27.6154087,27.9054629 27.5980711,27.8339454 C27.5807336,27.7624279 27.5178849,27.6833253 27.4095251,27.5966375 C27.0107611,27.2758925 26.6640098,26.8706269 26.3692711,26.3808406 C26.5859907,25.9777422 26.7593664,25.5204639 26.8893981,25.0090057 C27.0194299,24.4975475 27.1147865,23.9059031 27.175468,23.2340724 L27.175468,23.2340724 L27.3185029,23.2340724 C27.4658722,23.2340724 27.5395569,23.1538861 27.5395569,22.9935137 C27.5395569,22.8244724 27.4658722,22.7399517 27.3185029,22.7399517 L27.3185029,22.7399517 L25.6670997,22.7399517 C25.6801029,22.6836047 25.6920225,22.626174 25.7028584,22.5676597 C25.7136944,22.5091454 25.7234468,22.4495475 25.7321156,22.388866 C25.7537875,22.2458311 25.7505368,22.1472237 25.7223632,22.0930438 C25.6941897,22.0388639 25.6345918,22.0074396 25.5435696,21.9987708 C25.4568817,21.990102 25.394033,22.011774 25.3550235,22.0637867 C25.316014,22.1157994 25.2856733,22.2133232 25.2640013,22.3563581 C25.2206574,22.6944406 25.1437219,23.0227708 25.033195,23.3413486 C24.922668,23.6599263 24.7720479,23.9752533 24.5813346,24.2873295 C24.4599717,24.4953803 24.4599717,24.6384152 24.5813346,24.7164343 C24.6593537,24.7641126 24.7330383,24.7760322 24.8023886,24.752193 C24.8717389,24.7283539 24.9410891,24.65792 25.0104394,24.5408914 L25.0104394,24.5408914 L25.127468,24.326339 C25.1838151,24.6774248 25.2694193,25.0263433 25.3842807,25.3730946 C25.499142,25.7198459 25.6410934,26.0557613 25.8101346,26.3808406 C25.6584309,26.6192322 25.4807209,26.8381189 25.2770045,27.037501 C25.0732881,27.236883 24.8392309,27.4340978 24.574833,27.6291454 C24.4664733,27.7071644 24.3992902,27.7775983 24.3732838,27.840447 C24.3472775,27.9032957 24.3581135,27.9715623 24.4057918,28.045247 C24.4448013,28.1145972 24.502232,28.1536068 24.5780838,28.1622756 Z M26.0962045,25.8607137 C25.9401664,25.5226311 25.8068838,25.161793 25.6963569,24.7781994 C25.5858299,24.3946057 25.50456,23.9925909 25.4525473,23.5721549 C25.4698849,23.5158078 25.4872225,23.4605443 25.50456,23.4063644 C25.5218976,23.3521846 25.537068,23.2947539 25.5500711,23.2340724 L25.5500711,23.2340724 L26.7008521,23.2340724 C26.6401706,23.8018777 26.5621516,24.2970819 26.466795,24.7196851 C26.3714383,25.1422883 26.2479082,25.5226311 26.0962045,25.8607137 Z M23.3655378,26.8879644 C23.2441748,26.8402861 23.1271463,26.7969422 23.0144521,26.7579327 C22.9017579,26.7189232 22.7977325,26.6820808 22.7023759,26.6474057 C22.6286912,26.617065 22.5907653,26.584557 22.5885981,26.5498819 C22.5864309,26.5152068 22.6113537,26.4566925 22.6633664,26.374339 C22.6937071,26.3266607 22.7283823,26.2681465 22.7673918,26.1987962 C22.8064013,26.1294459 22.847578,26.0535941 22.8909219,25.9712406 L22.8909219,25.9712406 L23.8856648,25.9712406 C23.9203399,25.9712406 23.9441791,25.975575 23.9571823,25.9842438 C23.9701854,25.9929126 23.9680182,26.0145846 23.9506807,26.0492597 C23.8639928,26.2269697 23.7740542,26.3830078 23.6808648,26.517374 C23.5876754,26.6517401 23.4825664,26.7752703 23.3655378,26.8879644 Z M33.0073918,28.1037613 C33.198105,28.1037613 33.3335547,28.0582502 33.413741,27.9672279 C33.4939272,27.8762057 33.5340204,27.7223348 33.5340204,27.5056152 L33.5340204,27.5056152 L33.5340204,25.366593 C33.6380457,25.2972428 33.7388204,25.2268089 33.8363442,25.1552914 C33.933868,25.083774 34.0303082,25.0068385 34.1256648,24.9244851 C34.2123526,24.8508004 34.2589473,24.784701 34.2654489,24.7261867 C34.2719505,24.6676724 34.249195,24.6037401 34.1971823,24.5343898 C34.1495039,24.469374 34.0909897,24.436866 34.0216394,24.436866 C33.9522891,24.436866 33.8764373,24.4737084 33.7940838,24.547393 C33.7117304,24.6210777 33.6250426,24.6947623 33.5340204,24.768447 L33.5340204,24.768447 L33.5340204,23.650174 L34.0476457,23.650174 C34.138668,23.650174 34.211269,23.6295856 34.2654489,23.5884089 C34.3196288,23.5472322 34.3467188,23.4854671 34.3467188,23.4031137 C34.3467188,23.3207602 34.3185452,23.2600787 34.2621981,23.2210692 C34.205851,23.1820597 34.1343336,23.1625549 34.0476457,23.1625549 L34.0476457,23.1625549 L33.5340204,23.1625549 L33.5340204,22.2198248 C33.5340204,22.0464491 33.4516669,21.9597613 33.28696,21.9597613 C33.2132754,21.9597613 33.1558447,21.9803496 33.114668,22.0215263 C33.0734912,22.0627031 33.0529029,22.1288025 33.0529029,22.2198248 L33.0529029,22.2198248 L33.0529029,23.1625549 L32.4937664,23.1625549 C32.4027442,23.1625549 32.3312267,23.1820597 32.279214,23.2210692 C32.2272013,23.2600787 32.201195,23.3207602 32.201195,23.4031137 C32.201195,23.5678205 32.2987188,23.650174 32.4937664,23.650174 L32.4937664,23.650174 L33.0529029,23.650174 L33.0529029,25.0870248 C32.8491865,25.2127221 32.6324669,25.3210819 32.4027442,25.4121041 C32.29005,25.4597824 32.2163653,25.5150459 32.1816902,25.5778946 C32.1470151,25.6407433 32.1513495,25.7155115 32.1946934,25.8021994 C32.2380373,25.8802184 32.2889664,25.9224787 32.3474807,25.9289803 C32.405995,25.9354819 32.478596,25.9192279 32.5652838,25.8802184 C32.7343251,25.8108681 32.8968648,25.7328491 33.0529029,25.6461613 L33.0529029,25.6461613 L33.0529029,27.4536025 C33.0529029,27.5229528 33.0398997,27.5662967 33.0138934,27.5836343 C32.987887,27.6009719 32.9423759,27.603139 32.87736,27.5901359 C32.8296817,27.5814671 32.783087,27.5695475 32.7375759,27.5543771 C32.6920648,27.5392068 32.6454701,27.5229528 32.5977918,27.5056152 C32.4504225,27.4536025 32.3463971,27.4991137 32.2857156,27.6421486 C32.2510405,27.724502 32.2467061,27.7960195 32.2727124,27.856701 C32.2987188,27.9173824 32.3485643,27.9585592 32.4222489,27.9802311 C32.5392775,28.0192406 32.6476373,28.0495814 32.7473283,28.0712533 C32.8470193,28.0929253 32.9337071,28.1037613 33.0073918,28.1037613 Z M34.0541473,28.0517486 C34.1408352,28.0950925 34.2156034,28.1005105 34.2784521,28.0680025 C34.3413008,28.0354946 34.4030659,27.945556 34.4637473,27.7981867 C34.5547696,27.5771327 34.6306214,27.3647475 34.6913029,27.1610311 C34.7519844,26.9573147 34.8018299,26.7481803 34.8408394,26.5336279 C34.8798489,26.3190756 34.9080225,26.09152 34.92536,25.8509613 C34.9426976,25.6104025 34.9535336,25.3405867 34.957868,25.0415137 C35.0098807,25.0805232 35.0835653,25.1000279 35.1789219,25.1000279 L35.1789219,25.1000279 L36.297195,25.1000279 L36.297195,25.6851708 L35.6600394,25.6851708 C35.5430108,25.6851708 35.4476542,25.692756 35.3739696,25.7079263 C35.3002849,25.7230967 35.240687,25.7534375 35.1951759,25.7989486 C35.1496648,25.8444597 35.1182405,25.9073084 35.1009029,25.9874946 C35.0835653,26.0676808 35.0748965,26.1706226 35.0748965,26.29632 L35.0748965,26.29632 L35.0748965,27.4340978 C35.0748965,27.5554607 35.0813981,27.6551517 35.0944013,27.7331708 C35.1074045,27.8111898 35.1344944,27.8740385 35.1756711,27.9217168 C35.2168479,27.9693951 35.2764457,28.0029867 35.3544648,28.0224914 C35.4324838,28.0419962 35.534342,28.0517486 35.6600394,28.0517486 L35.6600394,28.0517486 L37.4544775,28.0517486 C37.5801748,28.0517486 37.682033,28.0419962 37.7600521,28.0224914 C37.8380711,28.0029867 37.897669,27.9693951 37.9388457,27.9217168 C37.9800225,27.8740385 38.008196,27.8111898 38.0233664,27.7331708 C38.0385368,27.6551517 38.0461219,27.5554607 38.0461219,27.4340978 L38.0461219,27.4340978 L38.0461219,26.29632 C38.0461219,26.174957 38.0385368,26.075266 38.0233664,25.997247 C38.008196,25.9192279 37.9789389,25.8574629 37.935595,25.8119517 C37.892251,25.7664406 37.8315696,25.7339327 37.7535505,25.7144279 C37.6755315,25.6949232 37.5758405,25.6851708 37.4544775,25.6851708 L37.4544775,25.6851708 L36.7718108,25.6851708 L36.7718108,25.1000279 L38.0266172,25.1000279 C38.212996,25.1000279 38.3061854,25.0198417 38.3061854,24.8594692 C38.3061854,24.6947623 38.212996,24.6124089 38.0266172,24.6124089 L38.0266172,24.6124089 L36.7718108,24.6124089 L36.7718108,24.2288152 C36.7718108,24.1117867 36.7436373,24.0316004 36.6872902,23.9882565 L36.6872902,23.9882565 L37.4544775,23.9882565 C37.5758405,23.9882565 37.6744479,23.9785041 37.7502997,23.9589994 C37.8261516,23.9394946 37.8857495,23.9069867 37.9290934,23.8614756 C37.9724373,23.8159644 38.002778,23.7531158 38.0201156,23.6729295 C38.0374532,23.5927433 38.0461219,23.4941359 38.0461219,23.3771073 L38.0461219,23.3771073 L38.0461219,22.8439771 C38.0461219,22.7182798 38.0363696,22.615338 38.0168648,22.5351517 C37.99736,22.4549655 37.9648521,22.3921168 37.919341,22.3466057 C37.8738299,22.3010946 37.8131484,22.2696703 37.7372965,22.2523327 C37.6614447,22.2349951 37.5650045,22.2263263 37.4479759,22.2263263 L37.4479759,22.2263263 L35.0618934,22.2263263 C34.9405304,22.2263263 34.841923,22.2360787 34.7660711,22.2555835 C34.6902193,22.2750883 34.631705,22.3075962 34.5905283,22.3531073 C34.5493516,22.3986184 34.521178,22.4614671 34.5060077,22.5416533 C34.4908373,22.6218396 34.4832521,22.7226142 34.4832521,22.8439771 L34.4832521,22.8439771 L34.4832521,24.7294375 C34.4832521,25.0805232 34.4724161,25.3915158 34.4507442,25.6624152 C34.4290722,25.9333147 34.3976479,26.1782078 34.3564711,26.3970946 C34.3152944,26.6159814 34.2643653,26.8175306 34.2036838,27.0017422 C34.1430024,27.1859539 34.0736521,27.3669147 33.995633,27.5446248 C33.9306172,27.6963285 33.9035272,27.807939 33.9143632,27.8794565 C33.9251992,27.950974 33.9717939,28.0084047 34.0541473,28.0517486 Z M37.4804838,23.5136406 L34.9643696,23.5136406 L34.9643696,22.8244724 C34.9643696,22.7767941 34.9697875,22.7464533 34.9806235,22.7334502 C34.9914595,22.720447 35.0098807,22.7139454 35.035887,22.7139454 L35.035887,22.7139454 L37.4804838,22.7139454 C37.5324965,22.7139454 37.5585029,22.7507877 37.5585029,22.8244724 L37.5585029,22.8244724 L37.5585029,23.3966121 C37.5585029,23.4442904 37.5530849,23.4757147 37.5422489,23.4908851 C37.5314129,23.5060554 37.5108246,23.5136406 37.4804838,23.5136406 L37.4804838,23.5136406 Z M34.9643696,24.6709232 L34.9643696,23.9882565 L36.375214,23.9882565 C36.3232013,24.027266 36.297195,24.1074523 36.297195,24.2288152 L36.297195,24.2288152 L36.297195,24.6124089 L35.1789219,24.6124089 C35.0878997,24.6124089 35.0163823,24.6319137 34.9643696,24.6709232 L34.9643696,24.6709232 Z M37.4804838,27.5706311 L35.6405346,27.5706311 C35.5841875,27.5706311 35.556014,27.5316216 35.556014,27.4536025 L35.556014,27.4536025 L35.556014,26.2768152 C35.556014,26.2031306 35.5841875,26.1662883 35.6405346,26.1662883 L35.6405346,26.1662883 L37.4804838,26.1662883 C37.5368309,26.1662883 37.5650045,26.2031306 37.5650045,26.2768152 L37.5650045,26.2768152 L37.5650045,27.4536025 C37.5650045,27.5316216 37.5368309,27.5706311 37.4804838,27.5706311 L37.4804838,27.5706311 Z M43.1271124,23.728193 C43.1942955,23.7195242 43.2755653,23.6653443 43.3709219,23.5656533 C43.4662786,23.4659623 43.5573008,23.3662713 43.6439886,23.2665803 C43.7306764,23.1668893 43.8130299,23.0628639 43.8910489,22.9545041 L43.8910489,22.9545041 L44.4696902,22.9545041 C44.5086997,23.041192 44.5390405,23.113793 44.5607124,23.1723073 C44.5823844,23.2308216 44.5997219,23.2860851 44.6127251,23.3380978 C44.6343971,23.4377888 44.6712394,23.5060554 44.7232521,23.5428978 C44.7752648,23.5797401 44.8381135,23.5894925 44.9117981,23.5721549 C45.076505,23.5374798 45.1371865,23.4312872 45.0938426,23.2535771 C45.0678362,23.1582205 45.0331611,23.0585295 44.9898172,22.9545041 L44.9898172,22.9545041 L45.796014,22.9545041 C45.8827018,22.9545041 45.9444669,22.9339158 45.9813092,22.892739 C46.0181516,22.8515623 46.0365727,22.7962988 46.0365727,22.7269486 C46.0365727,22.6489295 46.0181516,22.593666 45.9813092,22.5611581 C45.9444669,22.5286502 45.8827018,22.5123962 45.796014,22.5123962 L45.796014,22.5123962 L44.1836204,22.5123962 C44.2009579,22.4863898 44.2172119,22.4603835 44.2323823,22.4343771 C44.2475526,22.4083708 44.2638066,22.3801972 44.2811442,22.3498565 C44.3418256,22.2458311 44.3656648,22.1678121 44.3526616,22.1157994 C44.3396584,22.0637867 44.2984817,22.0204428 44.2291315,21.9857676 C44.146778,21.9424237 44.0774278,21.9348385 44.0210807,21.9630121 C43.9647336,21.9911856 43.9062193,22.0551179 43.8455378,22.1548089 C43.7198405,22.3758629 43.5865579,22.5806629 43.4456902,22.7692089 C43.3048225,22.9577549 43.1628711,23.119211 43.0198362,23.2535771 C42.9418172,23.3272618 42.8930553,23.3966121 42.8735505,23.4616279 C42.8540457,23.5266438 42.8746341,23.5894925 42.9353156,23.650174 C42.9959971,23.7108554 43.0599293,23.7368618 43.1271124,23.728193 Z M43.3514172,25.178047 C43.4294362,25.178047 43.4912013,25.1585422 43.5367124,25.1195327 C43.5822235,25.0805232 43.6049791,25.0176745 43.6049791,24.9309867 L43.6049791,24.9309867 L43.6049791,24.3328406 C43.6049791,24.2634904 43.6147315,24.2179793 43.6342362,24.1963073 C43.653741,24.1746353 43.6894997,24.1637994 43.7415124,24.1637994 L43.7415124,24.1637994 L48.1560902,24.1637994 C48.2557812,24.1637994 48.3207971,24.170301 48.3511378,24.1833041 C48.3814786,24.1963073 48.3966489,24.226648 48.3966489,24.2743263 C48.3966489,24.3306734 48.3858129,24.3935221 48.364141,24.4628724 C48.342469,24.5322226 48.3077939,24.6297465 48.2601156,24.7554438 C48.2211061,24.8551348 48.2081029,24.9309867 48.2211061,24.9829994 C48.2341092,25.0350121 48.2796204,25.078356 48.3576394,25.1130311 C48.4486616,25.1477062 48.5234299,25.1520406 48.5819442,25.1260343 C48.6404584,25.1000279 48.6935547,25.0306777 48.741233,24.9179835 C48.8019145,24.7662798 48.8430912,24.6286629 48.8647632,24.5051327 C48.8864352,24.3816025 48.8972711,24.2764935 48.8972711,24.1898057 C48.8972711,23.9860893 48.8355061,23.8484724 48.7119759,23.7769549 C48.5884457,23.7054375 48.3901473,23.6696787 48.1170807,23.6696787 L48.1170807,23.6696787 L46.2121156,23.6696787 L46.2121156,23.6696787 L46.1145918,23.4746311 C46.1449325,23.4659623 46.1763569,23.4475412 46.2088648,23.4193676 C46.2413727,23.3911941 46.2792987,23.3554353 46.3226426,23.3120914 C46.3703209,23.2600787 46.4190828,23.2037316 46.4689283,23.1430502 C46.5187738,23.0823687 46.5675357,23.01952 46.615214,22.9545041 L46.615214,22.9545041 L47.3108838,22.9545041 C47.3585621,23.0368576 47.3975717,23.1105422 47.4279124,23.1755581 C47.4582532,23.240574 47.4842595,23.2947539 47.5059315,23.3380978 C47.5492754,23.4464576 47.5969537,23.5190586 47.6489664,23.555901 C47.7009791,23.5927433 47.765995,23.5938269 47.844014,23.5591517 C47.9307018,23.5201422 47.9827145,23.4767983 48.0000521,23.42912 C48.0173897,23.3814417 48.0065537,23.307757 47.9675442,23.208066 C47.932869,23.1387158 47.8938595,23.0541951 47.8505156,22.9545041 L47.8505156,22.9545041 L48.7997473,22.9545041 C48.8864352,22.9545041 48.9482002,22.9339158 48.9850426,22.892739 C49.0218849,22.8515623 49.0403061,22.7962988 49.0403061,22.7269486 C49.0403061,22.6489295 49.0218849,22.593666 48.9850426,22.5611581 C48.9482002,22.5286502 48.8864352,22.5123962 48.7997473,22.5123962 L48.7997473,22.5123962 L46.9012838,22.5123962 C46.914287,22.4907242 46.9262066,22.4690523 46.9370426,22.4473803 L46.9541092,22.4148724 L46.9541092,22.4148724 L46.9728013,22.3823644 C47.024814,22.2826734 47.0432352,22.2024872 47.0280648,22.1418057 C47.0128944,22.0811242 46.9684669,22.0334459 46.8947823,21.9987708 C46.8210976,21.9640957 46.7560817,21.9586777 46.6997346,21.9825168 C46.6433875,22.006356 46.5870405,22.0746226 46.5306934,22.1873168 C46.4396711,22.3736957 46.3464817,22.531901 46.2511251,22.6619327 C46.1557685,22.7919644 46.0517431,22.9111602 45.9390489,23.01952 C45.874033,23.0802015 45.8306891,23.1387158 45.8090172,23.1950629 C45.7570045,23.1950629 45.6984902,23.2145676 45.6334743,23.2535771 C45.4904394,23.3445994 45.4882722,23.4811327 45.6269727,23.6631771 C45.6269727,23.6675115 45.6291399,23.6696787 45.6334743,23.6696787 L45.6334743,23.6696787 L43.6894997,23.6696787 C43.4771145,23.6696787 43.3254108,23.7195242 43.2343886,23.8192152 C43.1433664,23.9189062 43.0978553,24.0706099 43.0978553,24.2743263 L43.0978553,24.2743263 L43.0978553,24.9309867 C43.0978553,25.0956935 43.1823759,25.178047 43.3514172,25.178047 Z M47.8180077,28.0192406 C48.0173897,28.0192406 48.1571738,27.9748131 48.23736,27.8859581 C48.3175463,27.7971031 48.3576394,27.6594861 48.3576394,27.4731073 L48.3576394,27.4731073 L48.3576394,26.8489549 C48.3576394,26.6582417 48.3175463,26.5206248 48.23736,26.4361041 C48.1571738,26.3515835 48.0173897,26.3093232 47.8180077,26.3093232 L47.8180077,26.3093232 L44.2941473,26.3093232 L44.2941473,25.9777422 L47.4604204,25.9777422 C47.6641368,25.9777422 47.8060881,25.9354819 47.8862743,25.8509613 C47.9664606,25.7664406 48.0065537,25.6288237 48.0065537,25.4381105 L48.0065537,25.4381105 L48.0065537,25.0155073 C48.0065537,24.8247941 47.9664606,24.6871771 47.8862743,24.6026565 C47.8060881,24.5181359 47.6641368,24.4758756 47.4604204,24.4758756 L47.4604204,24.4758756 L44.3266553,24.4758756 C44.1229389,24.4758756 43.9809875,24.5181359 43.9008013,24.6026565 C43.8206151,24.6871771 43.7805219,24.8247941 43.7805219,25.0155073 L43.7805219,25.0155073 L43.7805219,27.4731073 C43.7805219,27.6594861 43.8206151,27.7971031 43.9008013,27.8859581 C43.9809875,27.9748131 44.1229389,28.0192406 44.3266553,28.0192406 L44.3266553,28.0192406 L47.8180077,28.0192406 Z M47.4214108,25.5096279 L44.2941473,25.5096279 L44.2941473,25.0415137 C44.2941473,25.0025041 44.3006489,24.9764978 44.3136521,24.9634946 C44.3266553,24.9504914 44.3439928,24.9439898 44.3656648,24.9439898 L44.3656648,24.9439898 L47.4214108,24.9439898 C47.4604204,24.9439898 47.4842595,24.9504914 47.4929283,24.9634946 C47.5015971,24.9764978 47.5059315,25.0025041 47.5059315,25.0415137 L47.5059315,25.0415137 L47.5059315,25.4056025 C47.5059315,25.4489465 47.4994299,25.47712 47.4864267,25.4901232 C47.4734235,25.5031263 47.4517516,25.5096279 47.4214108,25.5096279 L47.4214108,25.5096279 Z M47.7724965,27.5511263 L44.3656648,27.5511263 C44.3439928,27.5511263 44.3266553,27.5446248 44.3136521,27.5316216 C44.3006489,27.5186184 44.2941473,27.4926121 44.2941473,27.4536025 L44.2941473,27.4536025 L44.2941473,26.7709359 L47.7724965,26.7709359 C47.8071717,26.7709359 47.8299272,26.7763539 47.8407632,26.7871898 C47.8515992,26.7980258 47.8570172,26.827283 47.8570172,26.8749613 L47.8570172,26.8749613 L47.8570172,27.4536025 C47.8570172,27.4926121 47.8526828,27.5186184 47.844014,27.5316216 C47.8353452,27.5446248 47.8115061,27.5511263 47.7724965,27.5511263 L47.7724965,27.5511263 Z M59.5078616,27.9737295 C59.5988838,27.9737295 59.6606489,27.9531412 59.6931569,27.9119644 C59.7256648,27.8707877 59.7419188,27.8090226 59.7419188,27.7266692 C59.7419188,27.6443158 59.7256648,27.5836343 59.6931569,27.5446248 C59.6606489,27.5056152 59.5988838,27.4861105 59.5078616,27.4861105 L59.5078616,27.4861105 L57.8369537,27.4861105 L57.8369537,26.6539073 L59.1957854,26.6539073 C59.2824733,26.6539073 59.3442383,26.6333189 59.3810807,26.5921422 C59.417923,26.5509655 59.4363442,26.4892004 59.4363442,26.406847 C59.4363442,26.3244935 59.417923,26.2638121 59.3810807,26.2248025 C59.3442383,26.185793 59.2824733,26.1662883 59.1957854,26.1662883 L59.1957854,26.1662883 L57.8369537,26.1662883 L57.8369537,25.5096279 L58.825195,25.5096279 C59.024577,25.5096279 59.1632775,25.4652004 59.2412965,25.3763454 C59.3193156,25.2874904 59.3583251,25.1433719 59.3583251,24.9439898 L59.3583251,24.9439898 L59.3583251,22.8244724 C59.3583251,22.6250904 59.3193156,22.4809719 59.2412965,22.3921168 C59.1632775,22.3032618 59.024577,22.2588343 58.825195,22.2588343 L58.825195,22.2588343 L56.3480902,22.2588343 C56.1443738,22.2588343 56.0100077,22.3032618 55.9449918,22.3921168 C55.8799759,22.4809719 55.847468,22.6250904 55.847468,22.8244724 L55.847468,22.8244724 L55.847468,24.9439898 C55.847468,25.1433719 55.8929791,25.2874904 55.9840013,25.3763454 C56.0750235,25.4652004 56.2180584,25.5096279 56.4131061,25.5096279 L56.4131061,25.5096279 L57.3558362,25.5096279 L57.3558362,26.1662883 L55.9905029,26.1662883 C55.8994807,26.1662883 55.8377156,26.185793 55.8052077,26.2248025 C55.7726997,26.2638121 55.7564457,26.3244935 55.7564457,26.406847 C55.7564457,26.4892004 55.7726997,26.5509655 55.8052077,26.5921422 C55.8377156,26.6333189 55.8994807,26.6539073 55.9905029,26.6539073 L55.9905029,26.6539073 L57.3558362,26.6539073 L57.3558362,27.4861105 L55.6524204,27.4861105 C55.5613981,27.4861105 55.499633,27.5056152 55.4671251,27.5446248 C55.4346172,27.5836343 55.4183632,27.6443158 55.4183632,27.7266692 C55.4183632,27.8090226 55.4346172,27.8707877 55.4671251,27.9119644 C55.499633,27.9531412 55.5613981,27.9737295 55.6524204,27.9737295 L55.6524204,27.9737295 L59.5078616,27.9737295 Z M53.7409537,27.9412216 C53.8016352,27.9542248 53.8839886,27.9433888 53.988014,27.9087137 C54.308759,27.8003539 54.602414,27.6844089 54.8689791,27.5608787 C55.1355442,27.4373486 55.4010256,27.2845613 55.6654235,27.1025168 C55.7391082,27.0548385 55.7846193,26.9974078 55.8019569,26.9302248 C55.8192944,26.8630417 55.8041241,26.7926078 55.7564457,26.7189232 C55.7087674,26.6495729 55.6545875,26.617065 55.5939061,26.6213994 C55.5332246,26.6257338 55.4660415,26.6560745 55.3923569,26.7124216 C55.2363188,26.8251158 55.0672775,26.9291412 54.885233,27.0244978 L54.885233,27.0244978 L54.885233,25.0480152 L55.4118616,25.0480152 C55.4985495,25.0480152 55.5592309,25.0285105 55.5939061,24.989501 C55.6285812,24.9504914 55.6459188,24.8941443 55.6459188,24.8204597 C55.6459188,24.746775 55.6296648,24.6882607 55.5971569,24.6449168 C55.5646489,24.6015729 55.5028838,24.579901 55.4118616,24.579901 L55.4118616,24.579901 L54.885233,24.579901 L54.885233,22.8114692 L55.4833791,22.8114692 C55.5657325,22.8114692 55.6231632,22.7908808 55.6556711,22.7497041 C55.6881791,22.7085274 55.704433,22.6510967 55.704433,22.5774121 C55.704433,22.5037274 55.6903463,22.4452131 55.6621727,22.4018692 C55.6339992,22.3585253 55.5744013,22.3368533 55.4833791,22.3368533 L55.4833791,22.3368533 L53.8254743,22.3368533 C53.7344521,22.3368533 53.6748542,22.3585253 53.6466807,22.4018692 C53.6185071,22.4452131 53.6044204,22.5037274 53.6044204,22.5774121 C53.6044204,22.6510967 53.6195907,22.7085274 53.6499315,22.7497041 C53.6802722,22.7908808 53.7387865,22.8114692 53.8254743,22.8114692 L53.8254743,22.8114692 L54.4106172,22.8114692 L54.4106172,24.579901 L53.8514807,24.579901 C53.7604584,24.579901 53.7008606,24.6015729 53.672687,24.6449168 C53.6445135,24.6882607 53.6304267,24.746775 53.6304267,24.8204597 C53.6304267,24.8941443 53.6455971,24.9504914 53.6759378,24.989501 C53.7062786,25.0285105 53.7647928,25.0480152 53.8514807,25.0480152 L53.8514807,25.0480152 L54.4106172,25.0480152 L54.4106172,27.2455517 C54.2285727,27.3192364 54.0291907,27.3907539 53.8124711,27.4601041 C53.6260923,27.5121168 53.556742,27.6226438 53.6044204,27.7916851 C53.6347611,27.8783729 53.6802722,27.9282184 53.7409537,27.9412216 Z M58.8837092,23.6566756 L57.8369537,23.6566756 L57.8369537,22.7399517 L58.7861854,22.7399517 C58.8208606,22.7399517 58.8457833,22.7507877 58.8609537,22.7724597 C58.8761241,22.7941316 58.8837092,22.8223052 58.8837092,22.8569803 L58.8837092,22.8569803 L58.8837092,23.6566756 Z M57.3558362,23.6566756 L56.3220838,23.6566756 L56.3220838,22.8569803 C56.3220838,22.7789613 56.3480902,22.7399517 56.4001029,22.7399517 L56.4001029,22.7399517 L57.3558362,22.7399517 L57.3558362,23.6566756 Z M58.7861854,25.0220089 L57.8369537,25.0220089 L57.8369537,24.1247898 L58.8837092,24.1247898 L58.8837092,24.8984787 C58.8837092,24.9808322 58.8512013,25.0220089 58.7861854,25.0220089 L58.7861854,25.0220089 Z M57.3558362,25.0220089 L56.4001029,25.0220089 C56.3784309,25.0220089 56.3600098,25.0111729 56.3448394,24.989501 C56.329669,24.967829 56.3220838,24.9374883 56.3220838,24.8984787 L56.3220838,24.8984787 L56.3220838,24.1247898 L57.3558362,24.1247898 L57.3558362,25.0220089 Z" id="外部数据管理"></path>
                </g>
            </g>
        </g>
    </g>
</svg>